<svg
  xmlns="http://www.w3.org/2000/svg"
  viewBox="0 0 800 800"
  width="800"
  height="800"
  style="width: 100%; height: 100%; transform: translate3d(0px, 0px, 0px);"
  preserveAspectRatio="xMidYMid slice"
>
  <defs>
    <clipPath id="__lottie_element_2">
      <rect width="800" height="800" x="0" y="0"></rect>
    </clipPath>
  </defs>
  <g clip-path="url(#__lottie_element_2)">
    <g style="display: none;">
      <rect width="800" height="800" fill="#ffffff"></rect>
    </g>
    <g
      style="display: none;"
      transform="matrix(1,0,0,1,182.1529998779297,418.5561218261719)"
      opacity="0.1708666666662188"
    >
      <g
        opacity="0"
        transform="matrix(1,0,0,1,-48.2239990234375,-10.219999313354492)"
      >
        <path
          fill="rgb(226,232,234)"
          fill-opacity="1"
          d=" M11.888999938964844,12.65999984741211 C11.888999938964844,12.65999984741211 -8.562000274658203,10.515999794006348 -8.562000274658203,10.515999794006348 C-8.562000274658203,10.515999794006348 -11.888999938964844,-12.65999984741211 -11.888999938964844,-12.65999984741211 C-11.888999938964844,-12.65999984741211 8.562000274658203,-10.515000343322754 8.562000274658203,-10.515000343322754 C8.562000274658203,-10.515000343322754 11.888999938964844,12.65999984741211 11.888999938964844,12.65999984741211z"
        ></path>
      </g>
      <g
        opacity="0"
        transform="matrix(1,0,0,1,218.2209930419922,-27.156999588012695)"
      >
        <path
          fill="rgb(226,232,234)"
          fill-opacity="1"
          d=" M11.888999938964844,12.659000396728516 C11.888999938964844,12.659000396728516 -8.562999725341797,10.515000343322754 -8.562999725341797,10.515000343322754 C-8.562999725341797,10.515000343322754 -11.888999938964844,-12.659000396728516 -11.888999938964844,-12.659000396728516 C-11.888999938964844,-12.659000396728516 8.562000274658203,-10.515999794006348 8.562000274658203,-10.515999794006348 C8.562000274658203,-10.515999794006348 11.888999938964844,12.659000396728516 11.888999938964844,12.659000396728516z"
        ></path>
      </g>
      <g
        opacity="0"
        transform="matrix(1,0,0,1,502.4750061035156,218.07899475097656)"
      >
        <path
          fill="rgb(226,232,234)"
          fill-opacity="1"
          d=" M7.210000038146973,-15.798999786376953 C7.210000038146973,-15.798999786376953 12.97599983215332,3.937999963760376 12.97599983215332,3.937999963760376 C12.97599983215332,3.937999963760376 -7.209000110626221,15.798999786376953 -7.209000110626221,15.798999786376953 C-7.209000110626221,15.798999786376953 -12.97599983215332,-3.937999963760376 -12.97599983215332,-3.937999963760376 C-12.97599983215332,-3.937999963760376 7.210000038146973,-15.798999786376953 7.210000038146973,-15.798999786376953z"
        ></path>
      </g>
      <g
        opacity="0"
        transform="matrix(1,0,0,1,496.38800048828125,105.69000244140625)"
      >
        <path
          fill="rgb(226,232,234)"
          fill-opacity="1"
          d=" M16.461999893188477,-5.5289998054504395 C16.461999893188477,-5.5289998054504395 5.98799991607666,12.166000366210938 5.98799991607666,12.166000366210938 C5.98799991607666,12.166000366210938 -16.461999893188477,5.5289998054504395 -16.461999893188477,5.5289998054504395 C-16.461999893188477,5.5289998054504395 -5.989999771118164,-12.166000366210938 -5.989999771118164,-12.166000366210938 C-5.989999771118164,-12.166000366210938 16.461999893188477,-5.5289998054504395 16.461999893188477,-5.5289998054504395z"
        ></path>
      </g>
      <g
        opacity="0"
        transform="matrix(1,0,0,1,306.7130126953125,-26.422000885009766)"
      >
        <path
          fill="rgb(255,196,17)"
          fill-opacity="1"
          d=" M12.71399974822998,-4.269999980926514 C12.71399974822998,-4.269999980926514 4.625,9.395999908447266 4.625,9.395999908447266 C4.625,9.395999908447266 -12.71399974822998,4.269999980926514 -12.71399974822998,4.269999980926514 C-12.71399974822998,4.269999980926514 -4.625,-9.395999908447266 -4.625,-9.395999908447266 C-4.625,-9.395999908447266 12.71399974822998,-4.269999980926514 12.71399974822998,-4.269999980926514z"
        ></path>
      </g>
      <g
        opacity="0"
        transform="matrix(1,0,0,1,167.63800048828125,-20.882999420166016)"
      >
        <path
          fill="rgb(165,219,221)"
          fill-opacity="1"
          d=" M5.635000228881836,-8.958000183105469 C5.635000228881836,-8.958000183105469 7.51800012588501,3.430000066757202 7.51800012588501,3.430000066757202 C7.51800012588501,3.430000066757202 -5.635000228881836,8.958000183105469 -5.635000228881836,8.958000183105469 C-5.635000228881836,8.958000183105469 -7.51800012588501,-3.430999994277954 -7.51800012588501,-3.430999994277954 C-7.51800012588501,-3.430999994277954 5.635000228881836,-8.958000183105469 5.635000228881836,-8.958000183105469z"
        ></path>
      </g>
      <g
        opacity="0.013395353698974474"
        transform="matrix(0.9999997615814209,-0.0006678400677628815,0.0006678400677628815,0.9999997615814209,503.9623718261719,163.00088500976562)"
      >
        <path
          fill="rgb(232,81,155)"
          fill-opacity="1"
          d=" M10.031999588012695,-3.36899995803833 C10.031999588012695,-3.36899995803833 3.6489999294281006,7.414000034332275 3.6489999294281006,7.414000034332275 C3.6489999294281006,7.414000034332275 -10.031999588012695,3.369999885559082 -10.031999588012695,3.369999885559082 C-10.031999588012695,3.369999885559082 -3.6500000953674316,-7.414000034332275 -3.6500000953674316,-7.414000034332275 C-3.6500000953674316,-7.414000034332275 10.031999588012695,-3.36899995803833 10.031999588012695,-3.36899995803833z"
        ></path>
      </g>
      <g
        opacity="0"
        transform="matrix(1,0,0,1,310.3450012207031,5.73799991607666)"
      >
        <path
          fill="rgb(232,81,155)"
          fill-opacity="1"
          d=" M5.439000129699707,-9.079000473022461 C5.439000129699707,-9.079000473022461 7.591000080108643,3.2660000324249268 7.591000080108643,3.2660000324249268 C7.591000080108643,3.2660000324249268 -5.438000202178955,9.079000473022461 -5.438000202178955,9.079000473022461 C-5.438000202178955,9.079000473022461 -7.591000080108643,-3.265000104904175 -7.591000080108643,-3.265000104904175 C-7.591000080108643,-3.265000104904175 5.439000129699707,-9.079000473022461 5.439000129699707,-9.079000473022461z"
        ></path>
      </g>
      <g
        opacity="0"
        transform="matrix(1,0,0,1,62.624000549316406,26.913000106811523)"
      >
        <path
          fill="rgb(255,196,17)"
          fill-opacity="1"
          d=" M10.031999588012695,-3.36899995803833 C10.031999588012695,-3.36899995803833 3.6500000953674316,7.414000034332275 3.6500000953674316,7.414000034332275 C3.6500000953674316,7.414000034332275 -10.031999588012695,3.369999885559082 -10.031999588012695,3.369999885559082 C-10.031999588012695,3.369999885559082 -3.6500000953674316,-7.414000034332275 -3.6500000953674316,-7.414000034332275 C-3.6500000953674316,-7.414000034332275 10.031999588012695,-3.36899995803833 10.031999588012695,-3.36899995803833z"
        ></path>
      </g>
      <g
        opacity="0"
        transform="matrix(1,0,0,1,-64.36499786376953,214.36500549316406)"
      >
        <path
          fill="rgb(232,81,155)"
          fill-opacity="1"
          d=" M1.090999960899353,10.526000022888184 C1.090999960899353,10.526000022888184 -8.034000396728516,1.937999963760376 -8.034000396728516,1.937999963760376 C-8.034000396728516,1.937999963760376 -1.090999960899353,-10.526000022888184 -1.090999960899353,-10.526000022888184 C-1.090999960899353,-10.526000022888184 8.034000396728516,-1.937999963760376 8.034000396728516,-1.937999963760376 C8.034000396728516,-1.937999963760376 1.090999960899353,10.526000022888184 1.090999960899353,10.526000022888184z"
        ></path>
      </g>
    </g>
    <g
      style="display: block;"
      transform="matrix(1,0,0,1,46.5,158.60400390625)"
      opacity="1"
    >
      <g
        opacity="1"
        transform="matrix(1,0,0,1,312.0780029296875,177.18499755859375)"
      >
        <path
          stroke-linecap="butt"
          stroke-linejoin="miter"
          fill-opacity="0"
          stroke-miterlimit="10"
          stroke="rgb(255,196,17)"
          stroke-opacity="0.0007265147042663229"
          stroke-width="4.829"
          d="M0 0"
        ></path>
      </g>
    </g>
    <g
      style="display: block;"
      transform="matrix(1,0,0,1,46.5,158.60400390625)"
      opacity="1"
    >
      <g
        opacity="1"
        transform="matrix(1,0,0,1,312.0780029296875,177.18499755859375)"
      >
        <path
          stroke-linecap="butt"
          stroke-linejoin="miter"
          fill-opacity="0"
          stroke-miterlimit="10"
          stroke="rgb(255,196,17)"
          stroke-opacity="0"
          stroke-width="4.829"
          d="M0 0"
        ></path>
      </g>
    </g>
    <g
      style="display: block;"
      transform="matrix(1,0,0,1,46.5,158.60400390625)"
      opacity="1"
    >
      <g
        opacity="1"
        transform="matrix(1,0,0,1,312.0780029296875,177.18499755859375)"
      >
        <path
          stroke-linecap="butt"
          stroke-linejoin="miter"
          fill-opacity="0"
          stroke-miterlimit="10"
          stroke="rgb(232,81,155)"
          stroke-opacity="0"
          stroke-width="4.829"
          d="M0 0"
        ></path>
      </g>
    </g>
    <g
      style="display: block;"
      transform="matrix(1,0,0,1,46.5,158.60400390625)"
      opacity="1"
    >
      <g
        opacity="1"
        transform="matrix(1,0,0,1,312.0780029296875,177.18499755859375)"
      >
        <path
          stroke-linecap="butt"
          stroke-linejoin="miter"
          fill-opacity="0"
          stroke-miterlimit="10"
          stroke="rgb(232,81,155)"
          stroke-opacity="0"
          stroke-width="4.829"
          d="M0 0"
        ></path>
      </g>
    </g>
    <g
      style="display: block;"
      transform="matrix(1,0,0,1,46.5,158.60400390625)"
      opacity="1"
    >
      <g
        opacity="1"
        transform="matrix(1,0,0,1,312.0780029296875,177.18499755859375)"
      >
        <path
          stroke-linecap="butt"
          stroke-linejoin="miter"
          fill-opacity="0"
          stroke-miterlimit="10"
          stroke="rgb(0,186,186)"
          stroke-opacity="0"
          stroke-width="4.829"
          d="M0 0"
        ></path>
      </g>
    </g>
    <g
      style="display: block;"
      transform="matrix(1,0,0,1,46.5,158.60400390625)"
      opacity="1"
    >
      <g
        opacity="1"
        transform="matrix(1,0,0,1,312.0780029296875,177.18499755859375)"
      >
        <path
          stroke-linecap="butt"
          stroke-linejoin="miter"
          fill-opacity="0"
          stroke-miterlimit="10"
          stroke="rgb(0,186,186)"
          stroke-opacity="0"
          stroke-width="4.829"
          d="M0 0"
        ></path>
      </g>
    </g>
    <g
      style="display: block;"
      transform="matrix(1,0,0,1,46.5,158.60400390625)"
      opacity="1"
    >
      <g
        opacity="1"
        transform="matrix(1,0,0,1,312.0780029296875,177.18499755859375)"
      >
        <path
          stroke-linecap="butt"
          stroke-linejoin="miter"
          fill-opacity="0"
          stroke-miterlimit="10"
          stroke="rgb(232,81,155)"
          stroke-opacity="0"
          stroke-width="4.829"
          d="M0 0"
        ></path>
      </g>
    </g>
    <g
      style="display: block;"
      transform="matrix(1,0,0,1,46.5,158.60400390625)"
      opacity="1"
    >
      <g
        opacity="1"
        transform="matrix(1,0,0,1,312.0780029296875,177.18499755859375)"
      >
        <path
          stroke-linecap="butt"
          stroke-linejoin="miter"
          fill-opacity="0"
          stroke-miterlimit="10"
          stroke="rgb(170,221,221)"
          stroke-opacity="0"
          stroke-width="4.829"
          d="M0 0"
        ></path>
      </g>
    </g>
    <g style="display: none;">
      <g>
        <path></path>
      </g>
      <g>
        <path></path>
      </g>
      <g>
        <path
          stroke-linecap="round"
          stroke-linejoin="miter"
          fill-opacity="0"
          stroke-miterlimit="10"
        ></path>
      </g>
      <g>
        <path
          stroke-linecap="round"
          stroke-linejoin="miter"
          fill-opacity="0"
          stroke-miterlimit="10"
        ></path>
        <path></path>
      </g>
      <g>
        <path></path>
      </g>
      <g>
        <path
          stroke-linecap="round"
          stroke-linejoin="round"
          fill-opacity="0"
        ></path>
      </g>
    </g>
    <g style="display: none;">
      <g>
        <path></path>
      </g>
      <g>
        <path></path>
      </g>
      <g>
        <path
          stroke-linecap="round"
          stroke-linejoin="miter"
          fill-opacity="0"
          stroke-miterlimit="10"
        ></path>
      </g>
      <g>
        <path
          stroke-linecap="round"
          stroke-linejoin="miter"
          fill-opacity="0"
          stroke-miterlimit="10"
        ></path>
        <path></path>
      </g>
      <g>
        <path></path>
      </g>
      <g>
        <path
          stroke-linecap="round"
          stroke-linejoin="round"
          fill-opacity="0"
        ></path>
      </g>
    </g>
    <g style="display: none;">
      <g>
        <path></path>
      </g>
      <g>
        <path></path>
      </g>
      <g>
        <path
          stroke-linecap="round"
          stroke-linejoin="miter"
          fill-opacity="0"
          stroke-miterlimit="10"
        ></path>
      </g>
      <g>
        <path
          stroke-linecap="round"
          stroke-linejoin="miter"
          fill-opacity="0"
          stroke-miterlimit="10"
        ></path>
        <path></path>
      </g>
      <g>
        <path></path>
      </g>
      <g>
        <path
          stroke-linecap="round"
          stroke-linejoin="round"
          fill-opacity="0"
        ></path>
      </g>
    </g>
  </g>
</svg>
