<svg xmlns="http://www.w3.org/2000/svg" viewBox="0 0 595.97 212.74">
  <g id="heat-logo-vector_inline_svg__Ebene_2" data-name="Ebene 2">
    <g id="heat-logo-vector_inline_svg__Layer_1" data-name="Layer 1">
      <path class="heat-logo-vector_inline_svg__cls-1" d="M76.68 120.71c37.48.79 41.93 1.17 52 9.81 1.13 1 2.18 1.92 3.18 2.82 5.41 4.91 7.33 6.64 13.36 4.49a2.4 2.4 0 001.4-3.21c-.83-1.85-2-4.1-3-5.84-3.61-6.71-8.42-15.7-7.8-25.11a2.39 2.39 0 00-3.51-2.26c-7.81 4.15-14.75 7-20.3 7.66-15.37 1.92-43.61.38-65.18 2.22a2.4 2.4 0 00-.51 4.69 109.74 109.74 0 0030.36 4.73zM303.42 1.55a22 22 0 00-20.53 2.29C268.62 13.62 237 34.55 212.91 49c-10.39 6.22-21.83 14-33.36 22a142.51 142.51 0 00-28.5 26l-.11.13c-6.05 7.25-2.46 15.36 3.28 26 3.61 6.71 6.73 12.5 4.79 18.15a10.94 10.94 0 01-6.28 6.48 30 30 0 01-12 2.94c-7.54 0-12.26-4.27-16.86-8.44-.92-.84-1.89-1.71-2.94-2.61-6.62-5.67-7.16-6.14-44.46-6.93-27.39-.58-45.18-8.88-53.71-14.08a2.36 2.36 0 00-2.63.13A30.63 30.63 0 008.79 135.8a2.38 2.38 0 001.39 2.83c21 8.46 88.24 30.37 217 27.53q4.83-.1 9.6-.24a2.37 2.37 0 002-3.5c-5.51-10.22-13-24.73-17.86-37.1a128 128 0 01-5.38-16.32 25 25 0 0111.13-27.23l77.7-47.83c11-8.3 21.93-2.31 34.59 3.46 9.37 4.28 29.44 13.83 34.76 11.61a3.71 3.71 0 00.58-.31 6.4 6.4 0 00-.71-11zM496 156.61a2.36 2.36 0 00-2.72-1.85c-31.87 5.31-133 20.44-265.92 23.38q-12 .27-23.36.26C86.44 178.4 25.22 158 4.9 149.49a2.38 2.38 0 00-3 1.11c-3.89 7.67-2 20 8.51 28.09 14 10.76 63 32.53 214.07 33.89 151.53 1.36 262.76-6 270.34-9.57s2.79-23.92 2-39.87a44.61 44.61 0 00-.82-6.53z"></path>
      <path id="heat-logo-vector_inline_svg__SVGID" class="heat-logo-vector_inline_svg__cls-1" d="M405 44.72s25-9.64 52-7.18c36.72 3.36 51.31 13.68 51.31 13.68s-18.87-36.95-45.61-41-57.7 34.5-57.7 34.5z"></path>
      <path id="heat-logo-vector_inline_svg__SVGID-2" data-name="SVGID" class="heat-logo-vector_inline_svg__cls-1" d="M356.39 82.69C393.74 63.25 434.1 37.08 472.25 55 510.34 72.89 558.63 97.23 596 77.79c-37.34 19.44-78.51 40.54-116.65 22.64-38.18-17.91-85.56-37.18-122.96-17.74z"></path>
      <path id="heat-logo-vector_inline_svg__SVGID-3" data-name="SVGID" class="heat-logo-vector_inline_svg__cls-1" d="M370.42 133.27c-40.89 10.09-77.15-18.59-110-45 32.84 26.4 84.9 11.92 125.78 1.83 40.88-10.1 75.38 23.43 108.22 49.77-32.78-26.39-83.12-16.69-124-6.6z"></path>
    </g>
  </g>
</svg>