<?xml version="1.0" standalone="no"?>
<!DOCTYPE svg PUBLIC "-//W3C//DTD SVG 20010904//EN"
 "http://www.w3.org/TR/2001/REC-SVG-20010904/DTD/svg10.dtd">
<svg version="1.0"
  xmlns="http://www.w3.org/2000/svg" width="700.000000pt" height="208.000000pt" viewBox="0 0 700.000000 208.000000" preserveAspectRatio="xMidYMid meet">

  <g transform="translate(0.000000,208.000000) scale(0.100000,-0.100000)" stroke="none">
    <path d="M30 1795 l0 -255 281 -2 280 -3 2 -750 2 -750 307 -3 308 -2 2 752 3
753 283 3 282 2 0 255 0 255 -875 0 -875 0 0 -255z"/>
    <path d="M1887 2043 c-4 -3 -7 -458 -7 -1010 l0 -1003 850 0 850 0 0 255 0
255 -540 0 -540 0 0 130 0 130 540 0 540 0 0 240 0 240 -540 0 -541 0 3 128 3
127 525 2 c289 2 531 3 538 3 9 0 12 58 12 255 l0 255 -843 0 c-464 0 -847 -3
-850 -7z"/>
    <path d="M3700 1040 l0 -1011 553 4 c527 3 556 5 651 26 398 89 629 330 702
733 23 125 23 370 0 495 -63 346 -239 585 -509 693 -156 62 -166 63 -809 67
l-588 4 0 -1011z m983 475 c84 -22 134 -50 194 -111 95 -95 139 -234 129 -404
-15 -260 -136 -416 -346 -450 -36 -5 -129 -10 -207 -10 l-143 0 0 493 c0 272
3 497 8 502 11 12 302 -3 365 -20z"/>
    <path d="M5726 2038 c4 -7 94 -139 199 -293 105 -154 194 -285 198 -291 4 -6
-34 -72 -84 -145 -50 -74 -147 -216 -216 -317 l-124 -182 226 2 227 3 86 148
c48 81 92 148 97 149 6 1 51 -67 100 -150 l90 -151 223 -1 c122 0 222 2 222 6
0 3 -93 141 -206 307 -114 166 -208 307 -211 314 -4 10 137 224 354 536 l54
77 -225 0 -225 0 -83 -145 c-46 -79 -87 -145 -93 -145 -5 0 -46 66 -89 145
l-80 145 -223 0 c-177 0 -223 -3 -217 -12z"/>
  </g>
</svg>
